<svg version="1.1" xmlns="http://www.w3.org/2000/svg" viewBox="0 0 4200 1500">
  <!-- THE ICON (Left Side) -->
  <g fill="#0c6a6c">
     <path d="M646.2 1331.9 c-15.6 -3 -28.2 -16.4 -31.2 -33 -1.5 -8.2 -0.6 -15.1 3 -22.7 3.8 -8 8.3 -12.8 18.6 -19.7 4.9 -3.3 9 -6.8 9.5 -8.2 0.5 -1.3 0.9 -20.2 0.9 -41.9 l0 -39.4 -5.2 -5.7 c-2.9 -3.2 -19.6 -20.8 -37.2 -39.1 -17.7 -18.4 -32.5 -34.1 -33.1 -35 -0.6 -1.1 -1.2 -47.2 -1.5 -130.2 l-0.5 -128.5 -135.5 -0.5 c-100.1 -0.4 -136 -0.8 -137.5 -1.7 -1.1 -0.6 -9.9 -9.4 -19.5 -19.4 -9.6 -10.1 -23.1 -24.1 -30 -31.1 l-12.5 -12.8 -46 0 c-25.3 0 -46.5 0.4 -47.1 0.8 -0.7 0.4 -2.5 3.8 -4.2 7.5 -7.9 17.3 -27.4 28 -45.5 24.8 -22.2 -3.9 -37.8 -26.3 -34 -48.7 3.2 -18.7 16.5 -32 35.1 -35.4 15.4 -2.8 35.6 7.2 42.7 21 1.3 2.5 3.3 5.5 4.5 6.8 l2.1 2.2 50.3 0 50.3 0 4 2.9 c2.3 1.6 4.7 3.8 5.4 4.9 0.8 1.1 11.6 12.4 24 25.3 12.5 12.9 23.9 24.9 25.4 26.7 5.6 6.7 -5.6 6.2 147.3 6.2 106.6 0 139.1 0.3 140 1.2 0.9 0.9 1.2 32.5 1.2 135.9 l0 134.7 35.5 34.3 c24.7 24 36.3 35.9 38.2 39.4 l2.8 5 -0.4 26 c-0.1 14.3 0 34.9 0.4 45.8 l0.7 19.8 6.9 4.4 c12.9 8.3 19.6 17.4 22.6 30.6 2.1 9.3 0.8 18.4 -3.9 27.1 -8 15 -27.9 23.4 -46.6 19.7z m19.4 -20.2 c7.8 -4 11.8 -10.7 11.9 -19.8 0 -5.6 -0.4 -7.3 -3 -11.4 -8.5 -13.8 -28.2 -13.9 -37.2 -0.3 -2.4 3.6 -2.8 5.1 -2.8 11.7 0 6.9 0.3 8 3.2 12.3 4.6 6.6 11.8 10.1 19.4 9.5 3.1 -0.3 6.9 -1.2 8.5 -2z m-556.8 -537.6 c7.9 -4.1 12.2 -11.3 12.2 -20.3 -0.1 -23.3 -31.4 -30.4 -42.1 -9.6 -2.4 4.6 -2.6 14.6 -0.4 19.3 2.1 4.2 7.2 9.4 11 11.1 4.6 2 14.9 1.8 19.3 -0.5z"/>
     <path d="M781.7 1330.4 c-19.9 -3.9 -31.7 -15.8 -34.3 -35 -2 -14.9 8.5 -33.4 24.1 -42.5 l6 -3.5 0.6 -6.5 c0.4 -3.5 0.7 -24.1 0.8 -45.8 0.1 -38 0.2 -39.6 2.2 -43.8 2 -4.2 22.6 -25.1 59.4 -60.3 7.2 -6.9 13.5 -13.4 14.2 -14.5 1 -1.5 1.2 -32.4 1.3 -134.8 0 -95.8 0.3 -133.4 1.1 -134.9 l1.1 -2.1 139.9 0.4 139.8 0.4 7.6 -7.5 c4.2 -4.1 18 -18.4 30.7 -31.6 12.6 -13.3 24.1 -24.7 25.4 -25.3 1.7 -0.8 17.7 -1.1 52 -1.1 29.3 0 50.3 -0.4 51.3 -0.9 1 -0.6 3.5 -4 5.7 -7.7 5 -8.6 11.7 -14.4 20.7 -18 6.2 -2.5 8.5 -2.9 17.2 -2.9 8.7 0 10.7 0.3 15.5 2.6 16.1 7.6 26.5 26.5 24.5 44.4 -1.5 13.4 -11.3 27.3 -23.6 33.4 -20.1 10 -46.3 -0.2 -56.2 -21.9 -1.6 -3.6 -3.4 -6.8 -4.1 -7.2 -1.7 -1.2 -91.4 -1 -93.5 0.2 -1 0.5 -14.5 14.1 -30 30.2 -15.5 16.1 -29.4 30.1 -30.9 31 -2.5 1.7 -11 1.8 -137.9 1.8 -107.1 0 -135.3 0.3 -136 1.3 -0.4 0.6 -0.9 58.8 -1.1 129.1 l-0.4 128 -15.8 16.5 c-8.7 9.1 -25.8 27 -37.9 39.6 l-22.1 23 0 41.6 c0 31.7 0.3 41.9 1.3 43.1 0.6 0.8 5.2 4.1 10 7.3 9.1 5.9 13.4 10.6 16.9 18.3 2.9 6.5 4.1 16 2.9 22.8 -4.3 23.3 -25.1 37.4 -48.4 32.8z m13.1 -18.6 c3.3 -0.8 6 -2.5 9.3 -5.8 9.9 -9.9 8.6 -25.4 -3 -33 -7.6 -5.1 -16.5 -5.3 -23.9 -0.6 -10.4 6.6 -13.3 20.2 -6.4 30.5 3.2 4.7 6 6.9 11.1 8.7 4.6 1.7 7.1 1.7 12.9 0.2z m562.3 -537.4 c13.5 -6.8 16.3 -26.3 5.2 -36.5 -10.9 -10.2 -28.5 -7.1 -35.4 6.3 -4 7.8 -3.4 15 1.9 23.1 5.6 8.5 19 11.8 28.3 7.1z"/>
     <path d="M367.7 1279.9 c-16.3 -3.8 -29.1 -23.2 -27.3 -41.3 1.2 -12 8.9 -23.2 19.7 -28.6 8.6 -4.3 7.9 -0.1 7.9 -47.7 0 -34.9 0.3 -42.9 1.4 -45.1 0.8 -1.5 24.9 -26.1 53.6 -54.7 29.8 -29.6 52.8 -53.4 53.6 -55.2 1.1 -2.5 1.4 -9 1.4 -28.2 0 -23.7 -0.1 -25.1 -1.9 -26.1 -1.3 -0.6 -15.3 -1 -38.6 -1 -38.7 0 -40.2 0.2 -43.7 4.7 -0.8 1 -25.6 25.9 -55.1 55.3 l-53.7 53.5 -54.7 0.5 -54.8 0.5 -3.7 7 c-10.3 19 -27.4 25.9 -46.1 18.6 -8.2 -3.2 -17.7 -12.3 -21.9 -20.9 -3 -6 -3.3 -7.5 -3.3 -15.7 0 -8.3 0.3 -9.6 3.4 -16 8.1 -16.4 24.5 -25.6 39.9 -22.5 12 2.5 22 10 28.4 21.5 l3.4 6 48.9 0.8 49 0.7 56 -55.9 c30.8 -30.7 57 -56.4 58.2 -57 1.5 -0.8 15.9 -1.1 45.6 -1.1 36 0 43.7 -0.2 44.6 -1.4 0.8 -0.9 1.1 -4.7 0.9 -10.7 l-0.3 -9.4 -109 -0.3 c-60 -0.1 -109.9 0 -111.1 0.3 -1.2 0.2 -3.7 3 -5.8 6.4 -4.4 7.3 -12.4 14.6 -19.2 17.7 -16.9 7.9 -39.8 3.7 -53.1 -9.7 -22.8 -22.9 -16.4 -61 12.6 -74.8 7.4 -3.5 8 -3.6 19.2 -3.6 l11.6 0 8.6 4.3 c5.7 2.8 10.4 6.1 13.7 9.4 5.4 5.5 10.6 15.2 11.6 21.9 0.4 2.3 1.5 5 2.6 6.1 1.7 1.7 6.3 1.8 118.2 1.8 64 0 117.1 0.3 118 0.6 1.4 0.6 1.6 7 1.6 62.5 0 59.3 -0.1 62.1 -1.9 65.7 -1.1 2 -25.2 26.9 -53.6 55.2 -29.5 29.3 -52.3 52.9 -53.1 54.7 -1.9 4.5 -2.1 74.1 -0.1 76.5 0.6 0.8 3.2 2.6 5.7 4 11.4 6.5 19.1 17 20.5 28.3 0.8 6.4 -1.8 19.6 -5 25.1 -8 13.7 -26.4 21.2 -42.8 17.3z m20.6 -21.5 c4.9 -3.4 8.7 -10.2 8.7 -15.4 0 -11.1 -12.4 -20.9 -22.8 -18 -5.3 1.4 -10.2 4.9 -12.6 8.9 -2.4 4.2 -2.6 13.3 -0.4 17.6 5.3 10.1 17.8 13.3 27.1 6.9z m-240.5 -186.3 c6.7 -3.4 10.2 -9.5 10.2 -17.6 0 -18.9 -24.5 -26.3 -35.4 -10.7 -6.4 9.3 -3.4 22.1 6.9 28.3 4.1 2.6 13.3 2.5 18.3 0z m77.7 -156.6 c12.9 -7.5 17.5 -21.9 11.2 -34.7 -3 -6.1 -9.2 -11.5 -15.6 -13.7 -12.6 -4.2 -27.4 2.9 -32.8 15.6 -2.1 5.1 -1.4 17.6 1.2 21.8 4.5 7.2 10.3 11.9 17 13.6 5.2 1.4 14.5 0.1 19 -2.6z"/>
     <path d="M1061.9 1280 c-15.2 -2.7 -25.2 -12 -29.9 -27.8 -4.4 -14.4 -1.5 -22 13.8 -36.9 l10.4 -10.2 0 -37 c-0.1 -31 -0.3 -37.4 -1.5 -39.2 -0.8 -1.1 -16.3 -17.4 -34.4 -36.2 -50.3 -52.2 -70.7 -73.7 -71.6 -75.2 -0.9 -1.6 -1 -124.6 -0.1 -127 0.6 -1.3 13 -1.5 118 -1.5 l117.4 0 1.4 -2.2 c0.8 -1.3 1.7 -3.9 2.1 -5.8 2.6 -12.5 12.7 -25.1 24.8 -30.8 18.2 -8.6 36.2 -6 50.7 7.4 10.1 9.4 15 20.6 15 34.3 0 21.8 -14.2 40.2 -34.9 45.1 -7.3 1.7 -21.1 0.8 -28.2 -1.9 -10.9 -4.1 -16.1 -8.8 -25.1 -22 l-2.8 -4.1 -109 0 c-108 0 -108.9 0 -110 2 -0.6 1.1 -1 6 -0.8 11.3 l0.3 9.2 45.5 0.8 c40 0.7 45.8 1 48.1 2.5 1.4 0.9 23.2 23.3 48.5 49.7 25.2 26.4 48.6 50.8 52 54.2 l6 6.3 50.7 0 c39.3 0 50.9 -0.3 51.7 -1.2 0.6 -0.7 2.8 -4 4.8 -7.3 5.3 -8.3 9.6 -12.3 17 -15.8 5.3 -2.5 7.6 -3 14 -3 25.6 0 42.1 18.4 39.1 43.6 -1.5 12.7 -8.8 22.6 -20.7 28.4 -7.4 3.7 -8.1 3.8 -18.2 3.8 -9 0 -11.2 -0.3 -15.3 -2.4 -6.2 -3.1 -14 -11.1 -17 -17.5 -1.4 -2.9 -3.1 -5.7 -3.9 -6.4 -1.1 -0.8 -15.8 -1.2 -57.2 -1.4 l-55.9 -0.3 -9.1 -9.6 c-52.3 -54.8 -97 -101.1 -98.6 -101.9 -1.2 -0.6 -16.3 -1 -40.4 -1 -37.1 0 -38.6 0.1 -39.6 1.9 -1.5 2.9 -1.3 51 0.3 53.7 0.7 1.2 20.8 22.1 44.8 46.5 51.3 52.3 58 59.4 60.5 64 1.8 3.1 1.9 6.5 2.2 44.6 l0.3 41.3 2.2 1.5 c1.2 0.8 5.1 3.4 8.7 5.8 4.7 3 7.7 6 10.7 10.5 5.2 7.7 6.6 12.6 6.6 21.7 -0.1 22.7 -20.7 39.6 -43.4 35.5z m14.1 -19.9 c9.1 -4.8 12.8 -16.4 7.9 -25 -7.6 -13.6 -26.6 -12.8 -33 1.4 -4 8.7 -0.8 18.1 8.1 23.4 4.5 2.7 12.2 2.8 17 0.2z m239.7 -187.1 c9.4 -4.2 13.2 -17.2 8 -27.1 -3.3 -6.2 -11 -10.3 -18.5 -9.7 -12.7 1.1 -21.3 14.4 -16.8 26.1 4.2 11 16.3 15.7 27.3 10.7z m-73.2 -158 c9 -3.8 14.7 -13 14.7 -23.5 -0.1 -7.3 -1.7 -11.7 -6.3 -17 -7.4 -8.4 -20 -10.9 -30.4 -5.9 -15.9 7.5 -19.5 28.3 -7.2 41.2 7.4 7.7 18.7 9.7 29.2 5.2z"/>
     <path d="M903 1232.9 c-6.7 -1.1 -16.1 -5.6 -21.6 -10.3 -5.5 -4.7 -12.1 -15.1 -14.5 -22.7 -1.2 -3.8 -1.9 -9 -1.9 -13.7 0.1 -18 10.3 -33.5 28.5 -43 l7 -3.7 0 -143.8 c0 -136.5 0.1 -143.9 1.8 -145.2 1.4 -1 24.7 -1.4 115.2 -2 131.6 -0.9 118.8 -1.9 118.3 9.8 -0.3 6.5 -0.5 7.3 -2.8 8.4 -2 1 -23.4 1.3 -98.5 1.4 -52.8 0.1 -100 0.4 -105 0.8 l-9 0.6 0.3 133.5 c0.2 73.4 0.6 134.2 0.8 135.1 0.2 0.8 3.7 3 7.7 4.8 4 1.7 10.1 5.4 13.5 8.1 5 4.1 6.8 6.5 10.2 13.3 14.7 29.9 0.3 60.9 -31.7 68.1 -7.9 1.7 -10.1 1.8 -18.3 0.5z m20.8 -22.8 c9.3 -4.7 14.7 -13.7 14.6 -24.1 -0.1 -7.6 -1.9 -12.3 -6.7 -17.7 -7.7 -8.5 -21 -11.2 -31.1 -6.4 -8.9 4.4 -15.7 15.2 -15.6 25 0.2 11.1 9.3 22.4 20.3 25.2 4.8 1.2 14.2 0.2 18.5 -2z"/>
     <path d="M523.1 1231.9 c-18.1 -3.5 -33.4 -19.6 -35.9 -37.7 -3.3 -23.5 9 -44.3 31.1 -52.7 3.1 -1.2 4.9 -2.5 5.2 -3.9 0.6 -2.3 2.3 -265.4 1.7 -267.2 -0.4 -1.5 -51.3 -2.4 -138.7 -2.4 -55.1 0 -71.6 -0.3 -73.5 -1.3 -2.3 -1.1 -2.5 -1.9 -2.8 -8.3 -0.5 -11.8 -13.9 -10.6 117.4 -9.8 l113.8 0.7 2.3 2.3 2.4 2.4 -0.6 36.2 c-1 71.1 -1.5 247.3 -0.7 248.6 0.5 0.7 3.5 2.5 6.8 4.1 27.5 13.1 36.8 44.8 20.3 69.8 -10.4 16 -28.6 23.2 -48.8 19.2z m18.9 -20.4 c13.7 -4.8 21.1 -20.3 16.1 -33.5 -4.1 -11 -12.2 -17.1 -23.8 -17.8 -7.5 -0.5 -14.8 2.5 -20.5 8.3 -6.2 6.4 -8.4 17.1 -5.7 26.9 1.5 5.3 9.9 14.1 15.2 16 5.5 1.9 13.4 2 18.7 0.1z"/>
     <path d="M693.4 1169 c-16.7 -5.3 -26.8 -24.7 -22 -42.5 0.7 -2.7 2.1 -6.5 3.1 -8.4 2.4 -4.8 9.8 -12.5 15.5 -16.1 3.1 -2 5.2 -4.2 5.9 -6.2 1.4 -4 1.5 -90.6 0.1 -94.2 -0.5 -1.5 -3.1 -4.1 -5.7 -5.9 -7.4 -5 -13.3 -11.6 -16.7 -18.7 -2.7 -5.8 -3.1 -7.5 -3.1 -15.5 0 -7.8 0.4 -9.8 2.8 -15 3.5 -7.6 8.6 -12.8 16.2 -16.8 5.7 -3 6.6 -3.2 17 -3.2 10 0 11.5 0.3 16.7 2.8 12.2 6 19.1 16.5 19.6 30.2 0.6 14.1 -5.7 26.3 -17.8 34.5 -3.3 2.2 -6.4 4.9 -7 6 -0.6 1.2 -1 18.4 -1 48 0 52.1 -0.4 49.6 7.9 54.9 11.4 7.3 17.3 17.6 17.9 30.8 0.5 9.4 -1 14.8 -5.8 22.4 -8.1 12.5 -27.1 18.1 -43.6 12.9z m18.8 -17 c16.3 -4.6 17.8 -26.1 2.3 -33.1 -13.2 -6 -29.1 4.9 -27 18.5 1.9 11.4 12.8 17.9 24.7 14.6z m2.9 -174.3 c8.4 -4.5 11.8 -15.6 7.3 -24.2 -6.7 -12.8 -24.3 -13.5 -31.7 -1.3 -10.1 16.3 7.3 34.5 24.4 25.5z"/>
     <path d="M767.6 1122.9 c-10.6 -2.6 -22.5 -12.2 -27 -21.9 -1.7 -3.7 -2.1 -6.4 -2.1 -16 0 -15.7 1.5 -21.1 7.5 -27.1 3.1 -3.1 6.6 -5.3 10.6 -6.8 3.2 -1.2 6.4 -2.9 7.1 -3.7 0.7 -1 0.9 -4.7 0.6 -11.3 -0.5 -8.3 -0.3 -10.4 1.5 -14.3 2.7 -6.3 7.8 -11.6 19.1 -20 5.3 -4 10.1 -7.9 10.8 -8.7 1 -1.2 1.2 -28.3 1.3 -119.1 0 -90.1 0.3 -117.9 1.2 -118.8 0.9 -0.9 30.2 -1.2 125.8 -1.2 117.5 0 124.8 -0.1 126.2 -1.7 0.8 -1 2.7 -3.9 4.2 -6.5 7.9 -13.9 22.9 -21.6 37 -18.8 12.7 2.5 24.1 11.3 29.4 22.8 3.9 8.4 3.7 18.4 -0.5 27.3 -4.2 9 -11 16.1 -19.1 20.1 -5.9 2.9 -7.6 3.3 -14.7 3.3 -13.4 0 -22.7 -5.7 -32.3 -19.5 l-3.8 -5.5 -115 -0.2 c-71.3 -0.2 -115.5 0.1 -116.4 0.7 -1.3 0.8 -1.6 14.7 -2 111.9 -0.6 127.3 0.8 112.4 -11.1 121.6 -11.9 9.2 -18.6 16.7 -20.3 22.6 -0.9 2.9 -1.6 7 -1.6 9.2 0 3.3 0.6 4.5 3.7 7.1 10.7 9.1 13.5 12.3 16.7 18.6 9.8 19.6 2.1 42 -18 52.7 -6.7 3.5 -13.1 4.6 -18.8 3.2z m12.4 -20.5 c10.1 -2.8 14.9 -15.3 9.8 -25.4 -4.9 -9.6 -16.5 -13.6 -25.8 -8.8 -3.5 1.8 -5.1 3.5 -7.2 7.7 -3.4 6.6 -3.5 10.3 -0.5 16.1 2.8 5.6 8.1 9.8 13.8 10.9 4.5 0.9 5.4 0.8 9.9 -0.5z m314.8 -323.1 c5 -3.2 9.2 -10.8 9.2 -16.2 -0.1 -7.4 -6 -15.5 -12.9 -17.6 -14.4 -4.4 -28.3 9.3 -23.7 23.3 3.9 11.6 17.6 16.8 27.4 10.5z"/>
     <path d="M627 1063.8 c-17.8 -2.9 -29.6 -16 -30.7 -34.2 -1 -14.9 4.7 -24.7 18.6 -32 3.8 -2 7.2 -4.3 7.5 -5.2 0.3 -0.9 0.6 -49.8 0.6 -108.8 0 -82 -0.3 -107.5 -1.2 -108.4 -1.8 -1.8 -234.7 -1.7 -237 0.1 -0.8 0.6 -3.4 4 -5.6 7.3 -5 7.5 -14 13.9 -20.9 15 -2.5 0.4 -8.1 0.4 -12.4 0.1 -16.2 -1.1 -26.6 -9.5 -30.5 -24.7 -4.4 -17.3 3.5 -35.9 18.4 -43.2 6 -3 7.5 -3.3 15.7 -3.3 8.2 0 9.7 0.3 15.5 3.2 7.7 3.8 13 9 18 17.5 l3.6 6.3 126.8 0.5 c124 0.5 126.8 0.5 128.2 2.4 1.2 1.7 1.4 19.4 1.4 118.1 l0 116.2 2.3 2 c1.2 1.1 4.4 3.2 7.1 4.8 7.5 4.2 13 10.3 15.6 17.1 4.3 11.4 1.1 28.4 -7 37.7 -8.3 9.4 -20.9 13.7 -34 11.5z m17 -21.4 c15.4 -10.2 6.9 -33.7 -11.6 -32.2 -11.4 1 -19.1 11 -17 22.3 0.9 4.5 8.1 12.1 12.2 12.8 5.8 1 12.2 -0.2 16.4 -2.9z m-284.1 -263.8 c4.8 -3.3 9.1 -11.3 9.1 -16.7 0 -7.5 -4.1 -13.7 -11.1 -16.9 -5.3 -2.4 -7.4 -2.5 -13 -0.5 -12.4 4.4 -17.3 18.9 -10.2 29.8 5.1 8 17 10 25.2 4.3z"/>
     <path d="M456.4 725.8 c-11.9 -1.8 -20.9 -7.9 -25.8 -17.6 -2.2 -4.4 -4.3 -7.2 -6.1 -8 -3.8 -1.7 -112 -1.7 -115.4 0.1 -1.4 0.7 -3.9 4 -5.8 7.9 -2.8 5.4 -4.5 7.4 -9 10.4 -9.2 6.1 -14.5 7.7 -24.3 7.2 -6.8 -0.4 -9.7 -1 -14.3 -3.3 -10 -5 -16.4 -13.6 -18.7 -25.3 -2.2 -10.8 -0.2 -21.7 5.3 -29.8 4.4 -6.6 10.5 -11 18.9 -13.5 9.8 -3 17.6 -2.3 27.2 2.5 8.8 4.3 12.2 7.5 15.1 14.1 4.1 9.2 -1.4 8.5 63.4 8.5 65 0.1 59.2 0.9 63.6 -8.5 3.1 -6.4 6.4 -9.6 14.1 -13.4 21.8 -10.8 43.9 -2.2 51.4 19.9 4.7 13.7 0.8 30.2 -9.2 39.6 -8.5 7.9 -18.6 11 -30.4 9.2z m-173 -21.2 c16.8 -12.7 4.1 -39.2 -16.1 -33.5 -14.3 4 -18.5 21.8 -7.5 32.2 3.8 3.6 7.4 4.7 14.4 4.4 4.3 -0.3 6.4 -0.9 9.2 -3.1z m188.8 0.1 c10.9 -8.2 11.5 -21.6 1.4 -30.5 -10.9 -9.5 -29 -2 -30.4 12.7 -0.6 6.3 1 11 5.4 15.5 3.8 4 7.6 5.4 14.6 5.5 3.8 0.1 5.4 -0.5 9 -3.2z"/>
     <path d="M965.5 724.6 c-7.6 -1.9 -12.8 -5 -17.8 -10.6 -10.1 -11.3 -12.2 -27.5 -5.3 -42.5 3.2 -6.9 8.6 -12.1 16.5 -15.8 5.7 -2.7 7.8 -3.1 15.1 -3.1 7.2 -0.1 9.4 0.4 14.3 2.7 8.6 3.9 13.4 8.2 16.6 14.6 5 9.8 -0.9 8.9 62.6 9.2 30.8 0.2 56.9 0 58 -0.4 1.1 -0.4 3.6 -3.7 5.5 -7.4 4 -7.7 8.8 -11.9 17.7 -15.4 26.4 -10.3 51.2 8.3 49 36.9 -1 13.7 -8 24.2 -20.1 30.2 -4.9 2.5 -7.1 3 -13.2 3 -15.3 0 -27.3 -6.5 -33.4 -18.2 -2 -3.8 -4.5 -7.1 -5.8 -7.7 -1.5 -0.7 -20.9 -1.1 -57.5 -1.1 -62.8 0 -57.8 -0.7 -62.7 9 -6.5 12.9 -24.5 20.5 -39.5 16.6z m18.7 -19.7 c7.2 -4.7 10.4 -13.5 7.9 -21.2 -3.7 -11.2 -15.1 -15.6 -26.4 -10.2 -7.7 3.6 -11.4 13.7 -8.3 22 1.9 5 7.3 10.2 11.4 11.1 1.5 0.3 3.2 0.7 3.7 1 2.3 0.8 8.4 -0.5 11.7 -2.7z m187.4 0.2 c10.8 -8.5 11 -23.7 0.3 -30.8 -6.9 -4.5 -17.3 -3.9 -23.3 1.5 -9.5 8.6 -6.1 26.6 5.9 31 4.9 1.8 13.7 1 17.1 -1.7z"/>
     <path d="M95.5 664.3 c-15.1 -1.8 -28.8 -11.2 -35.2 -24.3 -3.8 -7.9 -4.4 -21.1 -1.4 -30.3 5.8 -17.4 21.5 -28.7 40 -28.7 17.9 0 29.3 7.3 37.3 23.8 3 6.1 4.7 8.6 6.7 9.4 1.7 0.6 17.8 0.7 47.6 0.2 l44.9 -0.7 8.1 -8.1 c4.5 -4.5 16.9 -17.3 27.5 -28.4 11.1 -11.6 21.2 -21.3 23.5 -22.5 l4 -2.2 134.9 -0.3 c95.6 -0.2 135.3 -0.5 136.2 -1.3 1.1 -0.9 1.2 -23.5 0.7 -126.4 l-0.6 -125.2 4.9 -5.4 c5.4 -6 42.1 -44.5 57.9 -60.9 16.4 -17 14.5 -9.4 14.5 -59.1 0 -37.1 -0.2 -43 -1.5 -44.3 -0.9 -0.8 -4.7 -3.2 -8.6 -5.2 -8.3 -4.4 -14 -10.4 -18.3 -19.4 -2.9 -6 -3.1 -7.3 -3.1 -17 0 -9.9 0.2 -11 3.3 -17.2 4.3 -8.8 12.7 -16.6 21.3 -19.9 5.3 -2 8.2 -2.4 16.9 -2.4 9.7 0 11 0.3 17.2 3.2 12.7 6 19.7 16.3 22 32.1 1.2 9.2 0.2 16.5 -3.4 23.6 -3 5.8 -11.6 14 -18.5 17.5 -3.3 1.6 -6.3 3.7 -6.7 4.6 -0.3 0.9 -0.6 22.8 -0.6 48.6 0 33.7 -0.3 47.7 -1.2 49.2 -1.2 2.4 -4.5 5.9 -47 50.5 l-28.8 30.1 0 130.4 c0 103.4 -0.3 130.7 -1.3 131.5 -0.8 0.7 -46.9 1.3 -141.9 1.8 l-140.6 0.7 -29.9 29.9 c-16.4 16.5 -30.6 30.4 -31.5 30.9 -1 0.5 -23.8 1.2 -53 1.6 -30.1 0.3 -51.8 0.9 -52.5 1.5 -0.7 0.5 -2.6 3.4 -4.3 6.5 -5.8 10.2 -15.7 17.9 -26.6 20.8 -5.7 1.5 -6.9 1.6 -12.9 0.8z m15.8 -23.1 c13 -9 12.8 -28.1 -0.5 -36.9 -3.7 -2.5 -5.1 -2.8 -12.3 -2.8 -7.2 0 -8.6 0.3 -12.3 2.7 -2.2 1.5 -5.4 4.9 -6.9 7.5 -2.3 4 -2.8 5.9 -2.7 11.3 0 6.9 1.5 10.6 5.9 15.3 4 4.2 6.9 5.8 12.2 6.6 6.7 1 11.2 0 16.6 -3.7 m554.2 -533.1 c13.2 -5.9 16.6 -24 6.7 -34.4 -8.2 -8.7 -22.2 -9 -30.9 -0.7 -8.2 7.6 -8.4 22 -0.5 30.4 6 6.3 16.7 8.4 24.7 4.7z"/>
     <path d="M1340.2 662.9 c-11.2 -2.2 -22.6 -10.7 -28.7 -21.4 -1.5 -2.7 -3.5 -5.6 -4.3 -6.2 -1.2 -1 -13 -1.3 -51.3 -1.3 -32.4 0 -50.8 -0.4 -52.6 -1.1 -1.5 -0.5 -16.5 -14.7 -33.3 -31.5 l-30.6 -30.4 -140.1 0 c-126.1 0 -140.3 -0.2 -141.7 -1.6 -1.4 -1.4 -1.6 -14.7 -1.6 -131.5 l0 -130 -10.2 -10.7 c-5.6 -5.9 -22.6 -23.6 -37.7 -39.5 -15.2 -15.8 -28.1 -30 -28.8 -31.5 -0.9 -2 -1.2 -15.4 -1.3 -50.2 l0 -47.5 -3.3 -2 c-1.7 -1.1 -4.5 -2.7 -6.2 -3.5 -1.6 -0.8 -5.7 -4.2 -9.1 -7.5 -9.3 -9.2 -12.4 -19.3 -10.3 -33.9 2.9 -20.8 18.9 -34.7 39.9 -34.6 23.7 0.1 41.3 17.4 41.2 40.5 -0.1 16.5 -8.1 29.1 -23.7 37.3 l-7 3.7 -0.5 43 c-0.3 23.7 -0.2 44 0.2 45.3 0.4 1.2 6.1 7.7 12.6 14.5 23.5 24.4 59.7 62.3 61.5 64.3 1.6 2 1.7 9.1 1.7 127.5 0 69 0.4 126 0.8 126.6 0.6 1 30.3 1.3 136.2 1.5 l135.5 0.3 4.2 2.2 c2.6 1.4 14.3 12.8 30.8 30 17.4 18.2 27.7 28.2 29.8 29 4.7 1.7 90.7 1.8 93 0.1 0.9 -0.7 3.5 -5 5.7 -9.5 4.4 -8.8 10.6 -16 16.3 -18.6 12.1 -5.8 27.8 -6.2 38.7 -1 16 7.7 24.7 22.7 23.8 41.2 -0.5 10.6 -3.8 17.8 -11.3 25.5 -10.5 10.6 -24.6 15.2 -38.3 12.5z m15.9 -20.3 c1.9 -0.8 4.9 -2.9 6.8 -4.8 9.7 -9.5 9.5 -24 -0.5 -32.7 -4.6 -4.1 -7.7 -5.2 -13.9 -5.2 -20.4 0 -30.1 23.6 -15.5 37.8 5.8 5.7 16.1 7.8 23.1 4.9z m-559.8 -533.7 c8.6 -2.4 15.1 -11.5 15.1 -21.5 0.1 -8.3 -3.7 -14.7 -11.3 -18.6 -7.1 -3.7 -12.9 -3.7 -20.2 -0.1 -7.4 3.8 -11.1 9.3 -11.7 17.3 -1.1 15.7 12.9 27.2 28.1 22.9z"/>
     <path d="M1077.3 651.1 c-9 -3.3 -15.9 -9.6 -21.5 -19.6 -2.2 -3.9 -4.2 -6.1 -5.8 -6.6 -1.4 -0.4 -58.5 -0.7 -127.1 -0.8 -95.4 -0.1 -124.8 -0.4 -125.7 -1.3 -0.9 -0.9 -1.2 -27.2 -1.2 -112 l0 -110.8 -2.7 -2.8 c-1.6 -1.6 -7.9 -7.3 -14 -12.6 -16.2 -14 -15.3 -12.3 -15.3 -28.6 0 -15.2 0.2 -14.6 -7.4 -18.5 -5.8 -2.9 -14.1 -10.9 -16.5 -15.8 -4.1 -8.6 -3.7 -19.1 1.2 -32 3.1 -8.1 8.2 -14.5 14.7 -18.1 5.2 -2.9 6.1 -3.1 16 -3.1 9.4 0 11 0.3 15.5 2.6 9.8 5.2 15.8 13.4 19 25.6 2 7.8 1.9 13.2 -0.5 19.7 -2.5 6.6 -6 11.1 -13.4 17.3 -7.5 6.3 -10 11.6 -9.3 19.2 0.2 3.2 1.1 7 1.8 8.4 0.8 1.4 7 6.6 13.9 11.4 9.7 6.9 13 9.9 15 13.3 l2.5 4.5 0.3 105.4 c0.1 75.9 0.5 105.8 1.3 106.8 1 1.1 21.1 1.3 117.4 1.3 l116.4 0 3 -5.4 c3.8 -6.6 11 -13.4 17.6 -16.6 4.2 -2.1 6.4 -2.5 14.5 -2.5 8.9 0 10 0.2 16.4 3.5 8.2 4.1 15 10.6 19.1 18.1 2.7 4.9 3 6.2 3 14.9 0 8.9 -0.2 9.9 -3.4 15.8 -9.1 16.8 -28.8 25.2 -44.8 19.3z m19 -19 c8.2 -5 11.7 -15.6 8.2 -24.6 -4.5 -12 -19.6 -14.6 -29.1 -5.1 -6.3 6.2 -7.9 13.8 -4.5 21.1 4.7 10.2 16.4 14.2 25.4 8.6z m-316.8 -311 c10.6 -4.8 14.4 -17 8.2 -26.2 -3.6 -5.4 -8.2 -7.9 -14.4 -7.9 -12.7 0 -20.3 9.5 -17.9 22.3 1.3 6.8 10 13.6 17.6 13.6 1.4 0 4.3 -0.8 6.5 -1.8z"/>
     <path d="M340.3 650 c-10.2 -2.4 -18.2 -8.9 -23.4 -19 -3.2 -6.3 -3.8 -19.6 -1.4 -27.1 3.3 -9.9 11.5 -19.2 20 -22.9 11.5 -4.9 21.7 -4.7 31.6 0.6 6.3 3.5 9 6.4 13.6 14.9 l3.8 7 119 0 119 0 0.3 -104.4 c0.1 -73.9 -0.1 -104.8 -0.9 -105.7 -0.6 -0.7 -2.7 -1.8 -4.7 -2.5 -8.6 -2.8 -15 -9.6 -18.8 -19.9 -2.3 -6.4 -2.4 -21.9 0 -28.8 2.5 -7.4 9.8 -15.1 17.8 -18.8 5.2 -2.3 8 -2.9 15.5 -3.2 8.6 -0.4 9.7 -0.2 16.1 2.8 8.6 3.9 16.1 11.3 19.9 19.5 2.4 5.1 2.8 7.3 2.8 14.5 0 7.6 -0.4 9.3 -3.2 15 -4.3 8.8 -9.7 14.1 -21.5 21.4 l-2.8 1.6 -0.2 113.8 -0.3 113.7 -128 0.5 c-70.8 0.3 -128.6 0.9 -129.4 1.4 -0.7 0.5 -2.4 3.3 -3.7 6.3 -3.1 6.8 -10.2 13.8 -17.9 17.5 -4.9 2.3 -7.3 2.8 -13 2.7 -3.8 -0.1 -8.4 -0.4 -10.2 -0.9z m17.2 -17.9 c8.4 -3.8 12.9 -12.6 10.6 -20.8 -1.6 -6.3 -4.3 -9.7 -9.4 -12.2 -9.5 -4.6 -20.5 -1.1 -25.3 8.1 -2 3.9 -1.8 12.2 0.5 16.6 2.4 4.7 5 7 9.8 8.8 5.2 1.8 9.1 1.7 13.8 -0.5z m283.8 -257.7 c7.1 -3.6 10.9 -9.8 10.9 -17.5 -0.1 -9.5 -7.3 -17.3 -17.1 -18.6 -5 -0.7 -13.9 3.2 -16.8 7.3 -5.9 8.3 -4.5 19.5 3.5 26.7 4.1 3.8 14.1 4.8 19.5 2.1z"/>
     <path d="M200 532.1 c-8.7 -2.8 -13.3 -5.6 -19.3 -11.7 -11.6 -11.9 -16.3 -29 -12.2 -44.9 7 -26.6 35 -41.6 59.5 -31.9 9.7 3.8 19.1 11.4 25.3 20.4 1.7 2.5 3.5 4.8 4.1 5.2 0.6 0.4 50.2 0.8 110.3 0.8 107 0 109.3 0 110.3 -1.9 0.5 -1.1 1 -5.6 1 -10 0 -6.1 -0.4 -8.3 -1.7 -9.6 -1.5 -1.5 -5.5 -1.7 -44.7 -1.3 l-43.2 0.3 -4.6 -2.5 c-4.7 -2.5 -9.2 -7 -74.2 -74.8 -17.5 -18.3 -32.7 -33.7 -33.7 -34.2 -2.1 -1.2 -97.8 -1.4 -99.5 -0.2 -0.6 0.4 -3.1 3.9 -5.6 7.7 -8.1 12.7 -16.9 18.9 -28.3 20.1 -25.3 2.6 -43.6 -15.4 -42.3 -41.5 1.1 -22.6 17 -37 39.7 -36 14.2 0.7 24.2 7.6 31.3 21.6 l3.1 6.3 52.1 0 c32.8 0 53.5 0.4 55.8 1 4.3 1.2 7.9 4.8 80.7 81 15.5 16.2 29.4 30 30.9 30.7 1.9 0.9 13.7 1.2 42.3 1.3 35.3 0 39.8 -0.2 40.3 -1.6 0.3 -0.9 0.6 -12.6 0.6 -26 l0 -24.5 -6.7 -7.2 c-6.4 -6.9 -15.4 -16.3 -75.2 -78.6 -14.4 -15 -26.7 -28.5 -27.2 -29.8 -0.5 -1.3 -0.9 -20.6 -0.9 -43.2 0 -45.7 0.6 -42 -7.5 -45.7 -5.4 -2.5 -13.6 -10.8 -16.4 -16.7 -1.3 -2.7 -2.8 -8.2 -3.4 -12.2 -0.9 -6.2 -0.8 -8.3 0.8 -14 3.9 -14.5 14.7 -25.4 28.4 -28.5 15.1 -3.5 34.4 4.7 40.8 17.3 7.2 14.3 8.2 24.4 3.2 34.2 -3.1 6.3 -10.4 13.8 -19 19.7 -2.6 1.8 -5 4.1 -5.3 5.3 -0.3 1.1 -0.6 18 -0.5 37.5 0 25.5 0.3 36.3 1.2 38.2 0.7 1.4 24.4 26.8 52.7 56.4 28.3 29.5 52.3 55.1 53.2 56.8 1.6 2.8 1.7 8.4 1.8 62.2 0 56 -0.1 59.2 -1.8 60.7 -1.7 1.6 -11.3 1.7 -117.8 1.7 -63.7 0 -116.4 0.4 -117.1 0.8 -0.7 0.4 -2.6 4.9 -4.2 10 -5.9 17.9 -15.5 28 -30.6 32.1 -6.2 1.7 -20.2 1.3 -26.5 -0.8z m28 -22.2 c9 -6.1 13.9 -17.1 12 -27.1 -1.8 -9.2 -6.8 -15.5 -15.9 -19.6 -4.4 -2 -6.4 -2.4 -11.6 -2 -23.2 1.9 -33.2 26.6 -17.9 44.7 4.9 5.9 11.2 8.2 21.2 7.7 6.3 -0.3 7.9 -0.7 12.2 -3.7z m-79.8 -168.2 c5.2 -2.9 9.1 -9 9.6 -15.3 1.2 -14.5 -13.8 -24.7 -27.3 -18.5 -10.9 4.9 -14.5 17.6 -7.8 27.8 5.7 8.8 16.2 11.3 25.5 6z m240.2 -188.5 c11 -7.6 11.5 -23.9 0.9 -31.9 -3.1 -2.4 -4.6 -2.8 -10.2 -2.8 -8.1 0 -12.8 2.7 -16.6 9.6 -5.9 10.8 -0.9 24.4 10.3 28 4.4 1.4 11.3 0.1 15.6 -2.9z"/>
     <path d="M1222.6 532.4 c-8.8 -2.1 -17.1 -7 -23 -13.5 -6 -6.6 -8.9 -12 -11 -20.3 -0.9 -3.2 -2.1 -6.5 -2.7 -7.2 -1 -1.2 -19.9 -1.4 -118.5 -1.4 -115 0 -117.4 0 -118.4 -1.9 -1.5 -2.8 -1.4 -116.7 0.1 -122.9 1.1 -4.4 4.5 -8 54 -57.7 29 -29.1 53.3 -54.3 53.8 -55.8 1.3 -3.2 1.5 -73.5 0.3 -75.3 -0.4 -0.6 -3.3 -2.7 -6.4 -4.7 -13.1 -8.3 -20 -19.4 -20 -32 0 -20.3 10.5 -33.8 29.8 -38.3 21.5 -5 40.9 9 44.5 32 2.5 15.9 -5.2 30.5 -20 38 -2.8 1.4 -5.5 3.5 -6.1 4.5 -0.6 1.3 -1 16.6 -1 43 0 26.2 -0.4 42 -1.1 43.8 -0.5 1.5 -24.6 26.4 -53.4 55.3 -28.8 28.9 -52.9 53.8 -53.5 55.3 -1.5 4.2 -1.4 51.9 0.2 53.5 0.9 0.9 11 1.2 39.2 1.2 l38 0 56.6 -56.5 56.6 -56.5 53.1 0 c29.2 0 53.8 -0.3 54.7 -0.6 0.9 -0.3 3.3 -3.8 5.3 -7.6 7.4 -14.1 17.7 -21.1 31.2 -21.2 6.7 -0.1 8.5 0.3 15.1 3.5 10 4.8 16.8 11.1 21.1 19.5 3.2 6.3 3.4 7.4 3.4 16.3 0 8.5 -0.3 10.3 -2.8 15.4 -10.9 22.1 -34.8 29.8 -54 17.3 -6.6 -4.2 -9.5 -7.4 -14.5 -15.6 l-3.9 -6.5 -48.9 -0.3 -48.8 -0.2 -56.6 56.5 -56.6 56.5 -43.9 0 c-24.2 0 -44.6 0.4 -45.3 0.8 -0.9 0.6 -1.2 3.5 -1 10.8 l0.3 9.9 110 0 110 0 3.3 -5 c6.1 -9.2 11.3 -14.3 18.2 -17.9 22.7 -11.9 51.7 -3.1 63.3 19.1 10 19.3 6.8 40.3 -8.4 55.3 -11.5 11.3 -26.2 15.3 -42.3 11.4z m18.5 -20.4 c5 -1.4 12.3 -8.1 15 -13.8 2.7 -5.6 3 -15.6 0.7 -21.3 -2.1 -5 -7.4 -10.6 -12.2 -13.2 -6.1 -3.2 -17.4 -3.1 -24 0.3 -12.7 6.5 -17.6 21.8 -11.1 34.5 6.1 11.8 18.5 17.1 31.6 13.5z m72.9 -170.2 c14 -7.1 14.6 -26.8 1 -34.2 -8.7 -4.7 -18.9 -2.5 -25.4 5.6 -7.5 9.5 -2.7 25.2 9.1 29.3 5.6 2 10.3 1.8 15.3 -0.7z m-236.6 -186.7 c1.6 -0.9 4.3 -3.3 5.9 -5.4 4.2 -5.1 5 -14.3 1.8 -20.5 -6.4 -12.5 -25.2 -13.6 -32.9 -2 -3.6 5.5 -4.2 13.9 -1.4 19.5 2.4 4.5 7.2 9.1 10.5 9.8 1.2 0.2 3.1 0.6 4.2 0.8 3.1 0.7 8.7 -0.3 11.9 -2.2z"/>
     <path d="M312.7 529.2 c-2.2 -2.4 -2.4 -13.4 -0.3 -15.5 1.3 -1.2 17 -1.5 106.1 -1.9 65.4 -0.3 104.9 -0.8 105.5 -1.4 0.7 -0.7 0.9 -49.2 0.8 -134 l-0.3 -132.9 -9 -4.4 c-19.2 -9.5 -28.3 -24.9 -27.3 -46.6 0.3 -7.6 0.9 -10.1 3.7 -16.2 11.1 -24 43.1 -33.7 66.3 -20 5.8 3.4 14 12.2 17.2 18.5 9.4 18.5 6.7 36.5 -8.1 54.2 -2.5 3 -9.2 7.5 -16.3 11.1 l-6 3 0 141.9 c0 140.7 0 142 -2 144 -2 2 -3.3 2 -115.3 2 -108.6 0 -113.5 -0.1 -115 -1.8z m230.8 -308.6 c21.6 -10.1 20.2 -40.2 -2.2 -48.2 -16.4 -5.8 -33.8 6.9 -33.7 24.6 0.2 19.1 19 31.5 35.9 23.6z"/>
     <path d="M905.4 530.3 c-1.2 -0.2 -2.6 -1.5 -3.3 -2.9 -0.8 -1.8 -1.1 -40.2 -1.1 -143.3 0 -132.8 -0.1 -140.9 -1.7 -142.3 -1 -0.9 -2.9 -1.9 -4.3 -2.3 -4.6 -1.4 -12.4 -7.1 -17.3 -12.5 -17.2 -19.1 -16.8 -44.7 1 -64 9.3 -10.2 26 -15.7 39.9 -13.3 15.5 2.7 29.5 12.9 35.7 26 2.7 5.8 3.2 8.2 3.5 16.4 0.7 15.8 -3.7 27.2 -14.4 37.5 -4.5 4.4 -8.2 6.9 -13.1 8.9 -3.7 1.6 -7.4 3.5 -8 4.4 -1 1.2 -1.3 29.4 -1.3 133.5 0 72.7 0.4 132.7 0.8 133.3 0.6 1 23.8 1.3 106.1 1.5 102.9 0.3 105.3 0.3 106.7 2.2 0.8 1.1 1.4 4.3 1.4 7.3 0 4.4 -0.5 5.9 -2.5 7.8 l-2.4 2.5 -111.8 -0.1 c-61.5 -0.1 -112.8 -0.4 -113.9 -0.6z m14.3 -308.8 c6 -1.8 12.8 -7.8 15.8 -14 2.7 -5.5 2.7 -16.5 0 -21.9 -2.3 -4.7 -7.3 -9.9 -11.8 -12.2 -4.1 -2.2 -15.4 -3 -20 -1.5 -16.6 5.5 -23.1 26.3 -12.4 40.2 4.2 5.6 7.5 7.9 13.4 9.5 6.4 1.7 9 1.7 15 -0.1z"/>
     <path d="M697 464.6 c-7.8 -1.7 -12.3 -4.1 -17.5 -9.5 -16.6 -17.1 -12.5 -45.1 8.7 -58.5 7.7 -4.8 7.3 -1.8 7.3 -52.8 0 -25.2 -0.3 -47.1 -0.8 -48.8 -0.5 -2.1 -2.5 -4.1 -6.5 -6.9 -7.5 -5.1 -12.8 -11 -16.1 -18 -2.3 -4.9 -2.6 -6.9 -2.6 -15.6 0 -8.9 0.3 -10.6 2.7 -15.5 3.7 -7.5 9.1 -12.7 16.8 -16.4 5.9 -2.8 7.4 -3.1 16.5 -3.1 9.3 0 10.5 0.2 16.7 3.3 25.9 12.7 26.5 48.7 1 65.1 -2.7 1.7 -5.4 4.2 -6 5.6 -0.9 1.9 -1.2 15.8 -1.2 48.6 0 52.2 -0.4 49.6 8.3 55.2 2.8 1.9 6.4 4.7 7.8 6.3 13.6 14.9 14.1 36.2 1.2 50.5 -4.7 5.2 -11.1 8.9 -18.2 10.5 -6.7 1.6 -10.8 1.6 -18.1 0z m17 -18.8 c2.6 -1.3 5.7 -4.1 7.4 -6.5 10.9 -15.6 -5.4 -35.2 -23.1 -27.8 -5 2.1 -7.2 4.2 -9.4 9 -4.7 10.2 0.3 22.3 10.8 26 5.5 2 9.3 1.8 14.3 -0.7z m-0.3 -173.8 c6 -2.7 10.3 -9.6 10.3 -16.4 0 -6.6 -2.4 -11.3 -7.8 -15 -8.6 -6 -21.3 -2.9 -25.9 6.4 -8 15.7 7.5 32.3 23.4 25z"/>
  </g>
  
  <!-- REAL TEXT (Right Side) -->
  <text x="1600" y="650" font-family="Arial, Helvetica, sans-serif" font-weight="bold" font-size="280" fill="#152549" letter-spacing="5">CLINICODE</text>
  <text x="1600" y="950" font-family="Arial, Helvetica, sans-serif" font-weight="normal" font-size="280" fill="#0c6a6c" letter-spacing="5">LABS</text>
</svg>